#tb 0: 1/25
#media_type 0: video
#codec_id 0: rawvideo
#dimensions 0: 176x288
#sar 0: 0/1
0,          0,          0,        1,   152064, 0xfd13e8bd
0,          1,          1,        1,   152064, 0xfd66b6dd
0,          2,          2,        1,   152064, 0xfa462783
0,          3,          3,        1,   152064, 0xa66f1637
0,          4,          4,        1,   152064, 0x36477f48
